# xmcd CD database file
#
# Track frame offsets:
#	150
#	15813
#	33578
#
# Disc length: 731 seconds
#
# Revision: 0
# Processed by: cddbd v1.5.1PL0 Copyright (c) Steve Scherf et al.
# Submitted via: CDex 1.51
#
DISCID=1402d903
DTITLE=ダースレーダー - ガレージ男の魂
DYEAR=2005
DGENRE=Hip-Hop
TTITLE0=蝕前蝕後蝕中毒 - ダースレイダー
TTITLE1=New York Flow - Da.Me.Reco.ALLSTARS.
TTITLE2=3014 - Da.Me.Reco.ALLSTARS.
EXTD=YEAR: 2005
EXTT0=
EXTT1=
EXTT2=
PLAYORDER=
